<?xml version="1.0" ?><svg id="Layer_1" style="enable-background:new 0 0 512 512;" version="1.1" viewBox="0 0 512 512" xml:space="preserve" xmlns="http://www.w3.org/2000/svg" xmlns:xlink="http://www.w3.org/1999/xlink"><g id="XMLID_563_"><path d="M333.5,129.8H178.7v50.8h154.8V129.8z M225.8,166.1h-3.2v-11.4h-11.8v11.4h-3.1v-24.3h3.1V152h11.8v-10.2   h3.2V166.1z M240.7,166.5c-6.4,0-10.9-5-10.9-12.3c0-7.7,4.8-12.8,11.3-12.8c6.6,0,10.9,5.1,10.9,12.3   C252,162.1,246.9,166.5,240.7,166.5z M270.4,144.5H263v21.6h-3.2v-21.6h-7.4v-2.7h18V144.5z M286.8,166.1h-13.7v-24.3h13.1v2.6h-10   v7.7h9.5v2.6h-9.5v8.8h10.5V166.1z M304.4,166.1h-13.5v-24.3h3.1v21.7h10.4V166.1z" id="XMLID_692_"/><path d="M241,144c-5.2,0-7.8,4.8-7.8,10.1c0,5.2,2.8,9.9,7.8,9.9c5,0,7.8-4.6,7.8-10.1   C248.7,149,246.2,144,241,144z" id="XMLID_691_"/><path d="M492.4,107.2c0-5.3-4.3-9.5-9.5-9.5H348.1c-5.3,0-9.5,4.3-9.5,9.5v78.5H173.4v-78.5c0-5.3-4.3-9.5-9.5-9.5   H29.1c-5.3,0-9.5,4.3-9.5,9.5v361.2h472.9V107.2z M69,460H34.6v-14.3H69V460z M69,434.5H34.6v-14.3H69V434.5z M69,409H34.6v-14.3   H69V409z M69,383.6H34.6v-14.3H69V383.6z M69,358.1H34.6v-14.3H69V358.1z M69,332.6H34.6v-14.3H69V332.6z M69,307.1H34.6v-14.3H69   V307.1z M69,281.6H34.6v-14.3H69V281.6z M69,256.1H34.6v-14.3H69V256.1z M69,230.7H34.6v-14.3H69V230.7z M69,205.2H34.6v-14.3H69   V205.2z M69,179.7H34.6v-14.3H69V179.7z M69,154.2H34.6v-14.3H69V154.2z M69,128.7H34.6v-14.3H69V128.7z M114.2,460H84v-14.3h30.2   V460z M114.2,434.5H84v-14.3h30.2V434.5z M114.2,409H84v-14.3h30.2V409z M114.2,383.6H84v-14.3h30.2V383.6z M114.2,358.1H84v-14.3   h30.2V358.1z M114.2,332.6H84v-14.3h30.2V332.6z M114.2,307.1H84v-14.3h30.2V307.1z M114.2,281.6H84v-14.3h30.2V281.6z    M114.2,256.1H84v-14.3h30.2V256.1z M114.2,230.7H84v-14.3h30.2V230.7z M114.2,205.2H84v-14.3h30.2V205.2z M114.2,179.7H84v-14.3   h30.2V179.7z M114.2,154.2H84v-14.3h30.2V154.2z M114.2,128.7H84v-14.3h30.2V128.7z M158.4,460h-29.2v-14.3h29.2V460z M158.4,434.5   h-29.2v-14.3h29.2V434.5z M158.4,409h-29.2v-14.3h29.2V409z M158.4,383.6h-29.2v-14.3h29.2V383.6z M158.4,358.1h-29.2v-14.3h29.2   V358.1z M158.4,332.6h-29.2v-14.3h29.2V332.6z M158.4,307.1h-29.2v-14.3h29.2V307.1z M158.4,281.6h-29.2v-14.3h29.2V281.6z    M158.4,256.1h-29.2v-14.3h29.2V256.1z M158.4,230.7h-29.2v-14.3h29.2V230.7z M158.4,205.2h-29.2v-14.3h29.2V205.2z M158.4,179.7   h-29.2v-14.3h29.2V179.7z M158.4,154.2h-29.2v-14.3h29.2V154.2z M158.4,128.7h-29.2v-14.3h29.2V128.7z M207.8,459h-28.7v-28.7h28.7   V459z M207.8,421.2h-28.7v-28.7h28.7V421.2z M207.8,383.4h-28.7v-28.7h28.7V383.4z M207.8,345.6h-28.7v-28.7h28.7V345.6z    M207.8,307.8h-28.7v-28.7h28.7V307.8z M207.8,269.9h-28.7v-28.7h28.7V269.9z M207.8,232.1h-28.7v-28.7h28.7V232.1z M248.2,459   h-28.7v-28.7h28.7V459z M248.2,421.2h-28.7v-28.7h28.7V421.2z M248.2,383.4h-28.7v-28.7h28.7V383.4z M248.2,345.6h-28.7v-28.7h28.7   V345.6z M248.2,307.8h-28.7v-28.7h28.7V307.8z M248.2,269.9h-28.7v-28.7h28.7V269.9z M248.2,232.1h-28.7v-28.7h28.7V232.1z    M288.6,459h-28.7v-28.7h28.7V459z M288.6,421.2h-28.7v-28.7h28.7V421.2z M288.6,383.4h-28.7v-28.7h28.7V383.4z M288.6,345.6h-28.7   v-28.7h28.7V345.6z M288.6,307.8h-28.7v-28.7h28.7V307.8z M288.6,269.9h-28.7v-28.7h28.7V269.9z M288.6,232.1h-28.7v-28.7h28.7   V232.1z M329,459h-28.7v-28.7H329V459z M329,421.2h-28.7v-28.7H329V421.2z M329,383.4h-28.7v-28.7H329V383.4z M329,345.6h-28.7   v-28.7H329V345.6z M329,307.8h-28.7v-28.7H329V307.8z M329,269.9h-28.7v-28.7H329V269.9z M329,232.1h-28.7v-28.7H329V232.1z    M388,460h-34.4v-14.3H388V460z M388,434.5h-34.4v-14.3H388V434.5z M388,409h-34.4v-14.3H388V409z M388,383.6h-34.4v-14.3H388   V383.6z M388,358.1h-34.4v-14.3H388V358.1z M388,332.6h-34.4v-14.3H388V332.6z M388,307.1h-34.4v-14.3H388V307.1z M388,281.6h-34.4   v-14.3H388V281.6z M388,256.1h-34.4v-14.3H388V256.1z M388,230.7h-34.4v-14.3H388V230.7z M388,205.2h-34.4v-14.3H388V205.2z    M388,179.7h-34.4v-14.3H388V179.7z M388,154.2h-34.4v-14.3H388V154.2z M388,128.7h-34.4v-14.3H388V128.7z M433.2,460H403v-14.3   h30.2V460z M433.2,434.5H403v-14.3h30.2V434.5z M433.2,409H403v-14.3h30.2V409z M433.2,383.6H403v-14.3h30.2V383.6z M433.2,358.1   H403v-14.3h30.2V358.1z M433.2,332.6H403v-14.3h30.2V332.6z M433.2,307.1H403v-14.3h30.2V307.1z M433.2,281.6H403v-14.3h30.2V281.6   z M433.2,256.1H403v-14.3h30.2V256.1z M433.2,230.7H403v-14.3h30.2V230.7z M433.2,205.2H403v-14.3h30.2V205.2z M433.2,179.7H403   v-14.3h30.2V179.7z M433.2,154.2H403v-14.3h30.2V154.2z M433.2,128.7H403v-14.3h30.2V128.7z M477.4,460h-29.2v-14.3h29.2V460z    M477.4,434.5h-29.2v-14.3h29.2V434.5z M477.4,409h-29.2v-14.3h29.2V409z M477.4,383.6h-29.2v-14.3h29.2V383.6z M477.4,358.1h-29.2   v-14.3h29.2V358.1z M477.4,332.6h-29.2v-14.3h29.2V332.6z M477.4,307.1h-29.2v-14.3h29.2V307.1z M477.4,281.6h-29.2v-14.3h29.2   V281.6z M477.4,256.1h-29.2v-14.3h29.2V256.1z M477.4,230.7h-29.2v-14.3h29.2V230.7z M477.4,205.2h-29.2v-14.3h29.2V205.2z    M477.4,179.7h-29.2v-14.3h29.2V179.7z M477.4,154.2h-29.2v-14.3h29.2V154.2z M477.4,128.7h-29.2v-14.3h29.2V128.7z" id="XMLID_577_"/><path d="M501.9,468.4h-9.5v8.3H343.6h-5H173.4h-8.9h-145v-8.3h-9.5c-2.3,0-4.1,1.8-4.1,4.1v14h500v-14   C506,470.2,504.2,468.4,501.9,468.4z" id="XMLID_576_"/><path d="M333.5,25.5H178.7v100.8h154.8V25.5z M207,117.1h-18.1V85.4H207V117.1z M207,65.3h-18.1V33.6H207V65.3z    M236.3,117.1h-18.1V85.4h18.1V117.1z M236.3,65.3h-18.1V33.6h18.1V65.3z M265.7,117.1h-18.1V85.4h18.1V117.1z M265.7,65.3h-18.1   V33.6h18.1V65.3z M295.1,117.1H277V85.4h18.1V117.1z M295.1,65.3H277V33.6h18.1V65.3z M324.4,117.1h-18.1V85.4h18.1V117.1z    M324.4,65.3h-18.1V33.6h18.1V65.3z" id="XMLID_564_"/></g></svg>