<svg id="Layer_1" data-name="Layer 1" xmlns="http://www.w3.org/2000/svg" viewBox="0 0 64 64"><path d="M61,53.09v-33a5,5,0,0,0-5-5H47v-14H44.72l-3,1.82-3.26-2-3.25,2L32,.91l-3.25,2L25.5.91l-3.25,2-3-1.82H17v14H8a5,5,0,0,0-5,5v33H1v5a5,5,0,0,0,5,5H58a5,5,0,0,0,5-5v-5Zm-48-8v-4h4v4Zm4-6H11v8H53v-8H47v-18h8v28H9v-28h8Zm30,6v-4h4v4ZM22.25,5.26l3.25-2,3.24,2,3.25-2,3.25,2,3.25-2,3.26,2,3.25-2V45.09H19V3.26ZM5,20.09a3,3,0,0,1,3-3h9v2H9a2,2,0,0,0-2,2v28a2,2,0,0,0,2,2H55a2,2,0,0,0,2-2v-28a2,2,0,0,0-2-2H47v-2h9a3,3,0,0,1,3,3v33H5Zm56,38a3,3,0,0,1-3,3H6a3,3,0,0,1-3-3v-3H61Z"/><rect x="27" y="57.09" width="10" height="2"/><rect x="39" y="57.09" width="2" height="2"/><rect x="23" y="57.09" width="2" height="2"/><path d="M39,29.09a2,2,0,0,1,2,2h2a4,4,0,0,0-3-3.86V25.09H38v2H35v4a4,4,0,0,0,4,4,2,2,0,0,1,2,2v2H39a2,2,0,0,1-2-2H35A4,4,0,0,0,38,41v2.14h2v-2h3v-4a4,4,0,0,0-4-4,2,2,0,0,1-2-2v-2Z"/><rect x="21" y="41.09" width="12" height="2"/><rect x="21" y="37.09" width="12" height="2"/><rect x="21" y="33.09" width="12" height="2"/><rect x="21" y="29.09" width="12" height="2"/><rect x="21" y="25.09" width="12" height="2"/><path d="M43,7.09H21v16H43Zm-2,4H37v-2h4Zm-6-2v2H23v-2Zm-4,4v8H29v-8Zm2,0h2v8H33Zm-10,0h4v8H23Zm14,8v-8h4v8Z"/></svg>