<?xml version="1.0" encoding="UTF-8" standalone="no"?>
<!-- Created with Inkscape (http://www.inkscape.org/) -->

<svg
   width="64pt"
   height="64pt"
   viewBox="0 0 22.577778 22.577778"
   version="1.1"
   id="svg831"
   inkscape:version="1.1.1 (3bf5ae0d25, 2021-09-20)"
   sodipodi:docname="Export - Unblash - 64px.svg"
   inkscape:export-filename="C:\Users\User\Desktop\CARLOS PROJECT\6. JUNI 2\DONE\EXPANDED\09 - Jetski.png"
   inkscape:export-xdpi="576"
   inkscape:export-ydpi="576"
   xmlns:inkscape="http://www.inkscape.org/namespaces/inkscape"
   xmlns:sodipodi="http://sodipodi.sourceforge.net/DTD/sodipodi-0.dtd"
   xmlns="http://www.w3.org/2000/svg"
   xmlns:svg="http://www.w3.org/2000/svg"
   xmlns:rdf="http://www.w3.org/1999/02/22-rdf-syntax-ns#"
   xmlns:cc="http://creativecommons.org/ns#"
   xmlns:dc="http://purl.org/dc/elements/1.1/">
  <defs
     id="defs825">
    <pattern
       id="EMFhbasepattern"
       patternUnits="userSpaceOnUse"
       width="6"
       height="6"
       x="0"
       y="0" />
    <pattern
       id="EMFhbasepattern-9"
       patternUnits="userSpaceOnUse"
       width="6"
       height="6"
       x="0"
       y="0" />
    <pattern
       id="EMFhbasepattern-0"
       patternUnits="userSpaceOnUse"
       width="6"
       height="6"
       x="0"
       y="0" />
    <pattern
       id="EMFhbasepattern-7"
       patternUnits="userSpaceOnUse"
       width="6"
       height="6"
       x="0"
       y="0" />
    <pattern
       id="EMFhbasepattern-2"
       patternUnits="userSpaceOnUse"
       width="6"
       height="6"
       x="0"
       y="0" />
    <pattern
       id="EMFhbasepattern-98"
       patternUnits="userSpaceOnUse"
       width="6"
       height="6"
       x="0"
       y="0" />
    <pattern
       id="EMFhbasepattern-6"
       patternUnits="userSpaceOnUse"
       width="6"
       height="6"
       x="0"
       y="0" />
    <pattern
       id="EMFhbasepattern-01"
       patternUnits="userSpaceOnUse"
       width="6"
       height="6"
       x="0"
       y="0" />
    <pattern
       id="EMFhbasepattern-07"
       patternUnits="userSpaceOnUse"
       width="6"
       height="6"
       x="0"
       y="0" />
    <pattern
       id="EMFhbasepattern-8"
       patternUnits="userSpaceOnUse"
       width="6"
       height="6"
       x="0"
       y="0" />
    <pattern
       id="EMFhbasepattern-4"
       patternUnits="userSpaceOnUse"
       width="6"
       height="6"
       x="0"
       y="0" />
    <pattern
       id="EMFhbasepattern-40"
       patternUnits="userSpaceOnUse"
       width="6"
       height="6"
       x="0"
       y="0" />
    <pattern
       id="EMFhbasepattern-08"
       patternUnits="userSpaceOnUse"
       width="6"
       height="6"
       x="0"
       y="0" />
    <pattern
       id="EMFhbasepattern-04"
       patternUnits="userSpaceOnUse"
       width="6"
       height="6"
       x="0"
       y="0" />
    <pattern
       id="EMFhbasepattern-014"
       patternUnits="userSpaceOnUse"
       width="6"
       height="6"
       x="0"
       y="0" />
    <pattern
       id="EMFhbasepattern-27"
       patternUnits="userSpaceOnUse"
       width="6"
       height="6"
       x="0"
       y="0" />
    <pattern
       id="EMFhbasepattern-09"
       patternUnits="userSpaceOnUse"
       width="6"
       height="6"
       x="0"
       y="0" />
    <pattern
       id="EMFhbasepattern-5"
       patternUnits="userSpaceOnUse"
       width="6"
       height="6"
       x="0"
       y="0" />
    <pattern
       id="EMFhbasepattern-018"
       patternUnits="userSpaceOnUse"
       width="6"
       height="6"
       x="0"
       y="0" />
  </defs>
  <sodipodi:namedview
     id="base"
     pagecolor="#ffffff"
     bordercolor="#666666"
     borderopacity="1.0"
     inkscape:pageopacity="0.0"
     inkscape:pageshadow="2"
     inkscape:zoom="9.3164063"
     inkscape:cx="38.212159"
     inkscape:cy="42.666666"
     inkscape:document-units="pt"
     inkscape:current-layer="layer1"
     showgrid="false"
     units="pt"
     inkscape:window-width="1920"
     inkscape:window-height="1001"
     inkscape:window-x="-9"
     inkscape:window-y="-9"
     inkscape:window-maximized="1"
     inkscape:pagecheckerboard="true"
     inkscape:showpageshadow="false"
     inkscape:object-paths="true"
     inkscape:snap-intersection-paths="true"
     inkscape:snap-smooth-nodes="true"
     inkscape:snap-midpoints="true"
     showguides="true"
     inkscape:snap-bbox="true"
     inkscape:bbox-nodes="true"
     inkscape:snap-nodes="false"
     inkscape:snap-global="true"
     inkscape:snap-others="false">
    <inkscape:grid
       type="xygrid"
       id="grid1378" />
    <sodipodi:guide
       position="0.97013831,21.607643"
       orientation="78.000048,0"
       id="guide1380"
       inkscape:locked="false" />
    <sodipodi:guide
       position="0.97013831,0.97013129"
       orientation="0,78.000005"
       id="guide1382"
       inkscape:locked="false" />
    <sodipodi:guide
       position="21.607639,0.97013129"
       orientation="-78.000048,0"
       id="guide1384"
       inkscape:locked="false" />
    <sodipodi:guide
       position="21.607639,21.607643"
       orientation="0,-78.000005"
       id="guide1386"
       inkscape:locked="false" />
  </sodipodi:namedview>
  <metadata
     id="metadata828">
    <rdf:RDF>
      <cc:Work
         rdf:about="">
        <dc:format>image/svg+xml</dc:format>
        <dc:type
           rdf:resource="http://purl.org/dc/dcmitype/StillImage" />
      </cc:Work>
    </rdf:RDF>
  </metadata>
  <g
     inkscape:label="Icon"
     inkscape:groupmode="layer"
     id="layer1"
     transform="translate(0,-274.42223)">
    <path
       id="rect1173"
       style="color:#000000;display:inline;fill:#000000;stroke-width:1;stroke-linecap:round;stroke-linejoin:round;-inkscape-stroke:none"
       d="m 6.2972406,278.5546 c -0.3637289,0 -0.6657251,0.2994 -0.6657251,0.66313 v 1.00054 c 0,0.36373 0.3019962,0.66573 0.6657251,0.66573 h 0.9979386 c 0.1877777,0 0.3341606,0.14378 0.3341606,0.33156 v 0.42907 c -0.1047752,-0.0376 -0.2172327,-0.0579 -0.3341606,-0.0579 h -3.661488 c -0.7376999,0 -1.3807304,0.50958 -1.5479406,1.22809 -0.2329072,0.99693 -0.4646694,1.99565 -0.6975833,2.99576 -0.055894,0.24016 -0.083865,0.48545 -0.083865,0.73203 v 2.44381 c -0.1995575,0.1283 -0.33416377,0.35174 -0.33416377,0.60333 v 1.37826 c 0,0.49355 0.40815937,0.89911 0.90172117,0.89911 H 3.502367 c 0.3038835,0.59251 0.9218328,1.00054 1.6305038,1.00054 0.708671,0 1.3259679,-0.40803 1.6298581,-1.00054 h 0.5324503 c 0.5475621,0 0.9998857,-0.44972 0.9998857,-0.99728 h 4.3272121 c 0.183837,-7.4e-4 0.332283,-0.15033 0.331565,-0.33417 -6.66e-4,-0.18282 -0.148743,-0.33085 -0.331565,-0.33156 H 8.2950649 v -8.98858 c 0,-0.54757 -0.4523303,-0.99729 -0.9998857,-0.99729 H 6.2972406 v -1.00054 h 2.5309269 c 0.285909,0 0.5332191,0.18734 0.6117648,0.46224 l 0.2652481,0.92382 c 0.028361,0.0993 0.06865,0.19295 0.117673,0.28021 H 9.2923543 c -0.1828214,6.9e-4 -0.3308521,0.14874 -0.3315644,0.33156 -6.656e-4,0.18383 0.1477278,0.33343 0.3315644,0.33415 h 8.3228607 c 0.314609,0 0.609588,0.14619 0.798351,0.39788 l 2.196764,2.92881 c 0.216097,0.28814 0.33156,0.64037 0.33156,1.00053 v 0.33157 h -2.329385 c -0.547555,0 -0.997286,0.45232 -0.99729,0.99988 v 2.06478 c -0.408688,0.11662 -0.760088,0.37298 -0.999236,0.71319 -0.331957,-0.47219 -0.879859,-0.78275 -1.497233,-0.78275 -1.007141,0 -1.83074,0.82619 -1.830744,1.83334 -3e-6,1.00714 0.823593,1.83075 1.830744,1.83075 0.61738,0 1.165276,-0.30996 1.497233,-0.78145 0.33195,0.47152 0.880471,0.78145 1.497882,0.78145 1.007151,0 1.830749,-0.82361 1.830743,-1.83075 -4e-6,-0.95086 -0.734082,-1.74028 -1.663664,-1.82554 v -2.00302 c 0,-0.18778 0.143791,-0.33417 0.331565,-0.33417 h 2.329385 v 0.66639 h -0.663122 c -0.184852,-7.5e-4 -0.334886,0.1493 -0.334164,0.33415 6.66e-4,0.18384 0.150327,0.33228 0.334164,0.33156 h 0.663122 v 0.66573 h -0.663122 c -0.183837,-7.3e-4 -0.333448,0.14772 -0.334164,0.33156 -6.65e-4,0.18485 0.149312,0.33489 0.334164,0.33417 h 0.663122 v 0.33156 c 0,0.18777 -0.1438,0.33481 -0.33156,0.33481 -0.182822,6.9e-4 -0.33085,0.14874 -0.331562,0.33156 -6.65e-4,0.18383 0.147728,0.33344 0.331562,0.33417 0.547548,0 0.997285,-0.45299 0.997285,-1.00054 5.3e-5,-1.33104 0,-2.66213 0,-3.9924 0,-0.5041 -0.161728,-0.99512 -0.464186,-1.39841 l -2.196763,-2.92881 c -0.314136,-0.41886 -0.807884,-0.66571 -1.331451,-0.66571 h -6.659201 c -0.285909,0 -0.533219,-0.18733 -0.611765,-0.46224 l -0.262648,-0.92384 c -0.1593708,-0.5578 -0.673314,-0.94332 -1.2534335,-0.94332 z m 9.6517114,3.52561 c -0.183834,7.3e-4 -0.33228,0.15033 -0.33156,0.33417 3.32e-4,0.18307 0.148485,0.3315 0.33156,0.3322 h 1.093507 c 0.255928,0 0.495263,0.12166 0.648822,0.32637 l 0.756743,1.0077 c 0.110269,0.14582 0.317501,0.17542 0.464187,0.0663 0.148333,-0.10958 0.17924,-0.31899 0.06892,-0.4668 l -0.756744,-1.00769 c -0.278931,-0.37191 -0.717036,-0.59226 -1.181921,-0.59226 z M 3.6336912,282.2499 h 3.661488 c 0.1877743,0 0.3341606,0.14637 0.3341606,0.33415 v 0.29776 H 6.9636147 c -0.5475655,0 -1.0005382,0.44973 -1.0005382,0.99729 v 1.99783 c 0,0.54756 0.4529727,0.99728 1.0005382,0.99728 h 0.6657251 v 3.99566 c 0,0.18777 -0.1463863,0.33156 -0.3341606,0.33156 H 6.9558158 c 0.00486,-0.0542 0.00779,-0.10907 0.00779,-0.16449 -3.4e-6,-1.00715 -0.8236019,-1.83334 -1.830744,-1.83334 -1.0071422,0 -1.8307406,0.82619 -1.830744,1.83334 0,0.0555 0.00299,0.11033 0.00779,0.16449 H 1.8718365 c -0.1337708,0 -0.2359962,-0.0996 -0.2359962,-0.23339 v -1.37826 c 0,-0.0332 0.021436,-0.052 0.054612,-0.052 h 0.5597549 c 0.033152,0 0.05201,0.0189 0.05201,0.052 v 0.42452 c -9.985e-4,0.18511 0.1490526,0.33554 0.3341608,0.33482 0.1840929,-7e-4 0.3326429,-0.15073 0.3315643,-0.33482 v -0.42452 c 2.67e-5,-0.39294 -0.3247607,-0.71774 -0.7177115,-0.71774 H 1.9700277 v -1.99783 c 0.7768412,9.3e-4 1.5574704,0 2.3293886,0 0.5475655,0 1.0005382,-0.44972 1.0005382,-0.99728 v -1.99783 c 0,-0.54756 -0.4529727,-0.99729 -1.0005382,-0.99729 H 2.7586255 c 0.1252565,-0.37461 0.473234,-0.63191 0.8750657,-0.63191 z m 9.4872298,0.47718 c -0.260158,0 -0.519617,0.12531 -0.663125,0.37382 l -0.510993,0.88417 c -0.092,0.15956 -0.03694,0.36352 0.122875,0.45509 0.159588,0.0915 0.363103,0.0361 0.454433,-0.12354 l 0.508399,-0.88417 c 0.0468,-0.081 0.128076,-0.0811 0.174882,0 l 0.169031,0.28996 c 0.09157,0.15981 0.295523,0.21488 0.455086,0.12291 0.15848,-0.0925 0.212273,-0.2957 0.120271,-0.45443 l -0.167079,-0.28996 c -0.143508,-0.24858 -0.403613,-0.37382 -0.663776,-0.37382 z m -9.9806753,0.82046 h 1.1591706 c 0.1877777,0 0.3348131,0.1438 0.3348131,0.33156 v 1.99783 c 0,0.18777 -0.1470354,0.33157 -0.3348131,0.33157 H 4.0790246 L 3.235814,285.36593 c -0.1301327,-0.13082 -0.3418532,-0.13082 -0.4719858,0 -0.1290941,0.12984 -0.1290941,0.33955 0,0.46939 L 3.136348,286.2085 H 1.992133 c 0.010819,-0.0834 0.025797,-0.16642 0.044856,-0.24836 l 0.4862922,-2.08624 1.0740009,1.0714 c 0.1300593,0.1304 0.3412806,0.1304 0.47134,0 0.1290942,-0.12983 0.1290942,-0.33955 0,-0.46938 z m 4.4890941,0 v 2.66096 H 6.9636147 c -0.1877777,0 -0.3348131,-0.1438 -0.3348131,-0.33157 v -1.99783 c 0,-0.1819 0.137955,-0.32294 0.3172613,-0.33156 z m 6.6566012,0.48695 -0.03185,0.38811 c -0.0084,0.0969 -0.04722,0.11725 -0.135226,0.0761 l -0.351717,-0.16448 c -0.16678,-0.0774 -0.364723,-0.005 -0.442084,0.16189 -0.07809,0.16642 -0.0065,0.36464 0.15993,0.44273 l 0.351067,0.16449 c 0.465602,0.21758 1.034194,-0.1121 1.078552,-0.62413 l 0.03446,-0.38552 c 0.01654,-0.18336 -0.118912,-0.34531 -0.320836,-0.36212 -0.188017,0.004 -0.327434,0.13407 -0.342289,0.30297 z m 5.019593,0.63321 c -0.148333,0.10957 -0.17924,0.31898 -0.06892,0.46679 l 0.307508,0.40828 c 0.110433,0.14748 0.319651,0.17719 0.466787,0.0663 0.14624,-0.11034 0.175875,-0.31804 0.06631,-0.46485 L 19.76971,284.734 c -0.125102,-0.15375 -0.309995,-0.16114 -0.464187,-0.0663 z m -8.260453,0.30036 -0.354314,0.16448 c -0.166173,0.0784 -0.237461,0.27648 -0.159282,0.44273 0.07834,0.1658 0.276006,0.23702 0.442084,0.15928 l 0.351068,-0.16448 c 0.08799,-0.0411 0.126836,-0.0181 0.135225,0.0786 l 0.03446,0.38552 c 0.01485,0.18333 0.175552,0.31987 0.358869,0.3049 0.184436,-0.0148 0.321399,-0.17717 0.304906,-0.36147 l -0.03446,-0.38811 c -0.04776,-0.62678 -0.608039,-0.80274 -1.078555,-0.62152 z m 3.815567,0.66312 c -0.158872,0.0925 -0.212716,0.2962 -0.120271,0.45508 l 0.508398,0.88417 c 0.04679,0.081 0.0077,0.15019 -0.08581,0.15019 H 14.8288 c -0.184852,-7.5e-4 -0.334886,0.1493 -0.334164,0.33415 6.65e-4,0.18384 0.150327,0.33228 0.334164,0.33156 h 0.334163 c 0.574049,0 0.950813,-0.65292 0.663775,-1.15006 l -0.511646,-0.88416 c -0.09327,-0.16156 -0.306158,-0.20654 -0.454438,-0.1209 z m -4.277803,0.71514 -0.16708,0.28995 c -0.287024,0.49715 0.08906,1.15008 0.663123,1.15006 h 1.020044 c 0.183833,7.3e-4 0.333444,-0.14772 0.33416,-0.33156 6.65e-4,-0.18485 -0.149309,-0.33488 -0.33416,-0.33415 h -1.020044 c -0.09359,0 -0.135217,-0.0691 -0.08842,-0.15019 l 0.16708,-0.28995 c 0.092,-0.15874 0.03821,-0.36199 -0.120271,-0.45443 -0.162561,-0.0939 -0.370586,-0.0249 -0.454435,0.12027 z m 3.137489,0.26069 -0.316609,0.22365 c -0.421243,0.29445 -0.421243,0.95119 0,1.24563 l 0.316609,0.22365 c 0.151206,0.10593 0.359798,0.0687 0.46484,-0.0832 0.10462,-0.15021 0.06831,-0.35671 -0.08127,-0.46224 l -0.319209,-0.22364 c -0.07961,-0.0556 -0.07961,-0.099 0,-0.15473 l 0.316608,-0.22364 c 0.150062,-0.10467 0.187518,-0.31083 0.08387,-0.46159 -0.143191,-0.17923 -0.341331,-0.15517 -0.464839,-0.0839 z m -9.5880015,0.93359 c -0.1838332,7.3e-4 -0.33228,0.15032 -0.331561,0.33415 6.658e-4,0.18282 0.1487397,0.33085 0.331561,0.33156 h 0.3348132 c 0.1828214,-6.9e-4 0.3308521,-0.14874 0.3315644,-0.33156 6.657e-4,-0.18383 -0.1477277,-0.33345 -0.3315644,-0.33415 z m 1.0005383,2.32873 c 0.6473644,0 1.1771817,0.41554 1.1643698,1.16761 -0.012816,0.75207 -0.6854372,1.15548 -1.1643698,1.16438 -0.6366528,0 -1.1650189,-0.53044 -1.1650189,-1.16438 0,-0.63392 0.5176546,-1.16761 1.1650189,-1.16761 z m 9.9858752,0 c 0.647365,0 1.164367,0.52024 1.16437,1.16761 4e-6,0.64735 -0.517005,1.16438 -1.16437,1.16438 -0.647364,0 -1.165018,-0.51703 -1.165018,-1.16438 2e-6,-0.64737 0.517654,-1.16761 1.165018,-1.16761 z m 2.995115,0 c 0.647364,0 1.164366,0.52024 1.164368,1.16761 4e-6,0.64735 -0.517004,1.16438 -1.164368,1.16438 -0.647366,0 -1.164374,-0.51703 -1.16437,-1.16438 2e-6,-0.64737 0.517004,-1.16761 1.16437,-1.16761 z m -13.4809331,1.16632 c 3.3e-6,0.27272 0.2265796,0.4993 0.4992938,0.4993 0.2727143,0 0.4992905,-0.22658 0.4992938,-0.4993 6.7e-6,-0.27273 -0.2265729,-0.49929 -0.5057946,-0.49929 -0.2734965,0.008 -0.4927996,0.23083 -0.492793,0.49929 z m 10.4721681,-0.49929 c -0.266996,0.008 -0.486299,0.23083 -0.486293,0.49929 4e-6,0.27272 0.22658,0.4993 0.499294,0.4993 0.272715,0 0.499291,-0.22658 0.499295,-0.4993 6e-6,-0.27273 -0.226577,-0.49929 -0.499295,-0.49929 -0.0043,0 -0.0088,-1.1e-4 -0.01302,0 z m 2.995763,0 c -0.266997,0.008 -0.4863,0.23083 -0.486292,0.49929 2e-6,0.27272 0.226578,0.4993 0.499294,0.4993 0.272714,0 0.49929,-0.22658 0.499293,-0.4993 7e-6,-0.27273 -0.226577,-0.49929 -0.499293,-0.49929 -0.0043,0 -0.0088,-1.1e-4 -0.01302,0 z"
       sodipodi:nodetypes="sssssscssccscssscscsccsccssccsccccsccccscssccssscsscsscccsccccsccscscccccccccsscccscccccscssscssssccscssscsssssscscsscccssscssccscccccccscssssccccccccccccccsssccccccccccccccccccccccccccccccccccscscscccccccscsccccccccccccccccsccscczzczzssssssssssssscssssssssssssscs" />
  </g>
</svg>
